/* XPM */
static char *a90b7ae1f9514a5597737a3a85839aaa5b0BcX6EOGAs297p[] = {
/* columns rows colors chars-per-pixel */
"50 50 238 2 ",
"   c #1A0700",
".  c #141912",
"X  c #290200",
"o  c #240C00",
"O  c #2B0D01",
"+  c #220703",
"@  c #340700",
"#  c #340D00",
"$  c #3A0D00",
"%  c #3F0700",
"&  c #251101",
"*  c #2D1202",
"=  c #2D1609",
"-  c #2A1809",
";  c #331302",
":  c #3D1202",
">  c #32130A",
",  c #371A07",
"<  c #2C1E13",
"1  c #271911",
"2  c #341E14",
"3  c #371D17",
"4  c #3C240B",
"5  c #2B2318",
"6  c #3C2416",
"7  c #35241A",
"8  c #3D251A",
"9  c #3D291B",
"0  c #372616",
"q  c #3B2822",
"w  c #430E00",
"e  c #451B04",
"r  c #4A1B03",
"t  c #431D0A",
"y  c #4C1F0A",
"u  c #451500",
"i  c #561B01",
"p  c #442306",
"a  c #43250B",
"s  c #4A270A",
"d  c #532205",
"f  c #5C2802",
"g  c #54240C",
"h  c #59250B",
"j  c #56280C",
"k  c #5A2808",
"l  c #432314",
"z  c #442914",
"x  c #4D2A13",
"c  c #46281B",
"v  c #542714",
"b  c #552B13",
"n  c #5B2B13",
"m  c #542D1B",
"M  c #5A2C1A",
"N  c #5C2314",
"B  c #5D311A",
"V  c #573117",
"C  c #4A311D",
"Z  c #78370E",
"A  c #63281C",
"S  c #68361A",
"D  c #7B3D18",
"F  c #77391A",
"G  c #6C310F",
"H  c #4C2E22",
"J  c #593825",
"K  c #4A3525",
"L  c #662720",
"P  c #6D3B25",
"I  c #6D3F29",
"U  c #643C26",
"Y  c #733C24",
"T  c #7A3E23",
"R  c #753E29",
"E  c #6E3C33",
"W  c #7C451F",
"Q  c #5D483D",
"!  c #4F403B",
"~  c #6C4325",
"^  c #684126",
"/  c #744123",
"(  c #7A4325",
")  c #74442B",
"_  c #7C452B",
"`  c #7C4A2B",
"'  c #7D4B32",
"]  c #784C35",
"[  c #7C5337",
"{  c #684738",
"}  c #5E4C42",
"|  c #7B5944",
" . c #7D6246",
".. c #8B3D1A",
"X. c #863D1B",
"o. c #973F18",
"O. c #90390E",
"+. c #863C23",
"@. c #83451B",
"#. c #8E451C",
"$. c #894B1C",
"%. c #944316",
"&. c #94451B",
"*. c #99451C",
"=. c #95481E",
"-. c #9B491A",
";. c #AA4F1C",
":. c #A34B1B",
">. c #AA521E",
",. c #B1521E",
"<. c #B14C1E",
"1. c #854523",
"2. c #8C4524",
"3. c #844A24",
"4. c #8C4C25",
"5. c #8D4529",
"6. c #854C2C",
"7. c #8D4C2B",
"8. c #934623",
"9. c #9A4623",
"0. c #934B24",
"q. c #9B4B24",
"w. c #94462A",
"e. c #9C452A",
"r. c #934C2B",
"t. c #994D2B",
"y. c #8D5125",
"u. c #8C512C",
"i. c #86512A",
"p. c #925124",
"a. c #93512C",
"s. c #99522D",
"d. c #99562B",
"f. c #8C4633",
"g. c #854C33",
"h. c #8C4D33",
"j. c #894C37",
"k. c #934C32",
"l. c #984D36",
"z. c #855233",
"x. c #8B5234",
"c. c #8A5239",
"v. c #865339",
"b. c #945233",
"n. c #9B5333",
"m. c #94543A",
"M. c #995B3A",
"N. c #985839",
"B. c #A44E23",
"V. c #A54928",
"C. c #A55124",
"Z. c #A95424",
"A. c #A4552D",
"S. c #A9562A",
"D. c #A5582A",
"F. c #AA582B",
"G. c #B25627",
"H. c #A14B33",
"J. c #A55C35",
"K. c #A65835",
"L. c #9D6439",
"P. c #A6633A",
"I. c #AA643A",
"U. c #BC6635",
"Y. c #BC6A3A",
"T. c #B4653A",
"R. c #D7753C",
"E. c #CF7038",
"W. c #E1743F",
"Q. c #885B46",
"!. c #975D45",
"~. c #8C6244",
"^. c #8E644A",
"/. c #9A6748",
"(. c #9C6A52",
"). c #946754",
"_. c #8F6F56",
"`. c #A46A42",
"'. c #A56A4B",
"]. c #AD6C4C",
"[. c #A76546",
"{. c #A9744E",
"}. c #BB7549",
"|. c #A96D53",
" X c #B56D54",
".X c #BB6B50",
"XX c #AD7552",
"oX c #AC7A56",
"OX c #A87556",
"+X c #BC7C5B",
"@X c #B67B58",
"#X c #9D7D70",
"$X c #AA7B63",
"%X c #B07263",
"&X c #CD7D4E",
"*X c #CC7747",
"=X c #D47544",
"-X c #D97A44",
";X c #D37C4B",
":X c #D57947",
">X c #C57C53",
",X c #C27C5B",
"<X c #CC7C52",
"1X c #D27548",
"2X c #E37F43",
"3X c #C67961",
"4X c #B5835D",
"5X c #B78562",
"6X c #B68A66",
"7X c #BA8966",
"8X c #B38B72",
"9X c #CB824F",
"0X c #CE8150",
"qX c #C6825C",
"wX c #D4895B",
"eX c #E18D5E",
"rX c #C68767",
"tX c #D48665",
"yX c #C4946F",
"uX c #C58871",
"iX c #D59473",
"pX c #EC9A6B",
"aX c #E8966A",
"sX c #F49A6B",
"dX c #F0976B",
"fX c #ED9A74",
"gX c #F1A67C",
"hX c #DDBFA5",
"jX c #F0AE8B",
"kX c #CAC6BD",
"lX c #FDC9A1",
"zX c #FBD8BB",
"xX c #E9CCBA",
"cX c #E5C8C2",
"vX c #FFEBD6",
"bX c #FFF5DE",
"nX c #FDF8ED",
"mX c #FEF1EE",
/* pixels */
"rXaXaXiXfXsXdXdXpXpXpXpXpXpXdXdXdXaXpXpXfXfXsXlXbXvXyXiXgXeXsXsXsXpXaXpXpXpXpXpXaXpXpXpXsXpXpXfXjXzX",
"Z y.A.A.F.F.S.S.S.D.D.D.S.A.S.S.Z.Z.D.A.K.A.Z.wX| | G 4.T.:.G.Z.S.S.S.S.D.Z.S.S.S.Z.F.F.F.S.S.D.P.wX",
"i D p.0.8.9.o.e.8.=.=.=.9.8.9.9.%.%.=.2.r.=.-.>X, > d W q.*.-.*.*.=.=.=.=.=.=.=.&.=.=.=.=.=.=.-.:.R.",
"d ( M.b.t.t.e.n.t.p.a.a.t.t.t.t.q.8.t.r.b.r.:.qXm = S i.a.s.q.q.t.0.t.t.p.s.t.t.t.s.s.d.t.s.0.q.,.0X",
"k ` m.7.k.w.r.r.r.7.7.7.r.r.w.w.p.0.r.7.k.5.B.,XK & B 6.4.s.8.t.r.7.r.7.4.r.r.r.0.4.r.7.r.r.r.8.>.W.",
"j ` c.x.h.n.n.k.r.u.u.u.h.k.k.l.s.t.k.k.m.k.q.,XJ & m 6.7.n.t.t.t.r.r.r.t.r.r.k.r.r.r.r.r.r.r.r.Z.0X",
"j ` c.6.h.b.k.k.7.7.7.7.h.r.w.k.r.7.k.h.j.5.q.,XH 1 b x.b.r.w.t.r.k.r.r.7.r.r.r.7.r.r.r.7.k.7.0.Z.-X",
"d ` m.h.r.k.r.r.b.y.x.a.u.k.k.n.s.r.b.7.l.r.q.,XH 3 b z.m.w.e.n.r.t.k.k.t.k.k.r.r.r.k.r.t.r.r.9.;.2X",
"d z.g.b.N.2.r.s.r.7.a.7.u.r.t.r.4.t.n.r.7.r.:.>Xc > B 6.a.n.r.8.r.r.t.t.r.t.t.r.r.t.k.t.t.r.t.9.,.R.",
"k i.6.3.5.t.K.X.0.y.a.y.r.r.r.r.8.4.k.7.k.t.:.>Xv > n 3.r.s.e.t.t.r.r.r.r.r.r.r.r.r.r.r.r.t.r.9.G.R.",
"f ( N.N.7.n.J.2.r.y.7.y.7.r.t.r.0.4.r.7.b.t.:.>Xm > b 6.r.t.r.n.r.r.k.r.t.k.r.r.r.r.t.r.t.r.r.0.G.-X",
"d / x.x.7.5.7.0.4.y.7.7.7.7.7.w.u.7.u.h.b.2.-.<Xm = M i.u.7.5.n.r.7.r.7.w.7.r.7.w.7.r.7.h.7.r.0.B.E.",
"V z.g.3.m.m.6.b.u.u.z.u.u.x.h.k.x.x.x.x.x.6.-.qXz - V [ x.x.7.b.h.h.h.x.k.h.j.k.h.h.h.x.j.h.k.r.Z.E.",
"4 ] ^.v.!.!.h.m.x.z.x.x.x.x.m.j.x.z.v.z.v.x.s.4Xc 5 V [ z.v.j.c.j.c.c.j.c.c.c.j.g.c.x.c.c.j.c.h.T.;X",
"{ C ~ I A P S S P S ~ S P P Y P P ~ ^ U ^ R Z z.9 . C ^ U / I I P I P P P P P P P P P Y P P P P N %X",
"zXV ; g r i i r r r r r p t r r u r p : i d u r 2 & , p u d y r r r r r e t t t e r r r r r r t { cX",
"bXB X u $ # $ w ; # u @ & < , ; $ $ : $ : $ w : $ ; : $ $ $ $ : @ : w $ O 4 & ; : % % % # # $ O } mX",
"kX8X4X7X7X7X5X6X6X4X}.W   5  .6X5X5X5X5X5X5X5X5X5X5X5X5X5X5X5X4X7X7X7X$XJ & -  .8XrXrX5X6X6X5X6X8XnX",
"S L.OX/.OXoX'.oXOXXXwXL.- 7 [ 4XXXXX{.XXXXXXXXXXXXXXXXXXXXXXXXXX].XX(.jX~.o 4 _.%X X X].OX{.XX]. XjX",
"p ~ 7.D 3.6.T h.( ( T.L.= 7 ^ 3.@.1.1.1.1.1.2.1.1.1.1.1.2.1.1.1.1.+.G |.^., a U f.+.8.+.3.3.1.#.:.E.",
"B 6.b.s.b.n.n.k.b.4.Y.J.+ 3 _ b.r.b.k.b.t.b.b.b.r.b.r.s.s.k.b.s.d.K.2. X!.# s U m.H.n.t.b.b.s.9.;.E.",
"r T r.w.X.2.n.@.r.w.U.T.@ l Y 0.r.t.t.t.t.t.t.t.t.t.t.t.t.r.r.t.8.0.+. X!.X s i.k.e.9.9.7.0.w.*.>.E.",
"h f.s.0.2.w.n.r.k.w.G.K.# H F a.0.w.0.9.r.t.0.0.r.0.0.w.0.t.0.8.t.=.8. X).@ p ~ l.H.V.e.a.a.t.q.G.=X",
"h 3.2.t.A.2.w.t.2.r.E.T.# l S d.r.0.r.0.r.9.t.t.r.r.t.r.t.9.r.t.t.0.e.[.!.: s W l.H.e.e.0.a.t.q.Z.E.",
"h T s.4.0.r.0.r.a.#.U.J.; l ~ 4.p.r.r.0.r.r.t.a.0.0.0.r.4.0.r.4.p.s.0.]./.# s ~ k.e.9.=.y.y.0.=.<.2X",
"h ) u.0.7.7.r.7.7.2.T.P.# 2 W 4.4.4.4.7.4.y.4.4.a.a.a.a.a.a.a.a.y.0.2.[.~.O a ~ b.n.t.q.p.u.a.q.<.W.",
"n ( s.4.7.u.7.r.7.3.Y.P.* 7 ~ y.y.7.7.y.y.u.7.a.6.7.7.7.7.7.4.4.y.y.4.'.~.; a ~ h.w.w.4.i.y.4.&.;.R.",
"v ) u.7.7.7.7.7.x.7.Y.P.* 2 ~ 7.3.7.7.4.7.7.7.4.r.y.y.u.y.u.7.y.u.y.5.'.~.; s ~ c.t.a.p.y.i.a.0.;.-X",
"v ) r.6.7.7.5.7.h.2.Y.J.O 3 ) y.7.4.6.7.7.7.7.7.7.7.6.7.7.7.6.4.4.y.4.'.~.* a ^ x.l.r.0.u.y.u.0.V.=X",
"n ' b.r.7.b.h.h.j.5.Y.P.> 7 ) x.u.x.a.r.k.a.u.x.6.4.6.7.7.6.7.7.a.a.r.|.~.* z ^ b.k.w.r.i.i.y.0.Z.:X",
"n g.l.r.w.k.7.h.f.2.T.K.> H ) 7.h.7.h.7.r.h.k.7.t.h.k.k.k.7.r.7.4.7.5.'.~.* s ~ m.n.t.t.u.b.a.t.Z.:X",
"l U ] R _ g.R R ' Y M.c.+ 3 U ) T ( T ) ) ( T ) / ) ) / / T ( / / ( R !.| o 6 U R R T T ) / / F W I.",
"kXq 7 q c c H 3 c 6 4 < 5 5 7 c x p 6 z 4 p v v 7 5 7 6 a p s z z 9 6 6 7 5 < < 6 6 6 c 9 9 9 6 8 xX",
"nXK   & O     , & & & & o o O @ @ O # * * & @ + 5 . & = * O O o o o o o o o o o O o o & o & o o } bX",
"zX4X/./.[.[.P.].P.P.`.`.'.'.[.[.P.'.).).)./.J.j.1 1 J Q.'.(.(.|./.P.`.`.`.`.`.`.`.`.`.`.`.'.`.`.4XbX",
"W L.wX>X&XwX;X*X&X9X9X9X0X;X&X&X3XuXuX7XrXyXiXiXt 3 E %XrX4X3X,X0X&X&X&X&X&X0X0X0X0X&X&X0X0X0X>XrXlX",
"i Z 2...*.*.O.%.%.%.%.%.%.%.o.o.%...+.+.@.X.9..Xv $ N f.8...8.2.=.%.%.%.%.%.%.%.%.%.&.&.-.-.%.%.-.}.",
"G 4.2.w.w.9...t.=.8.#.=.2.9.9.9.q.t.w.b.s.#.V.tXM $ h k.8.&.t.0.8.8.0.9.8.8.8.8.8.8.9.0.8.0.8.=.>.-X",
"u ] c.m.f.m.k.k.h.x.x.x.j.k.h.k.8.p.4.u.a.@.*.>Xs ; M m.p.=.d.3.x.j.m.j.h.j.k.h.x.h.k.f.m.h.x.r.>.R.",
"b [ ] Q.g.f.f.h.6.6.g.g.g.g.f.f.$.a.3.( y.$.q.+Xb * n 6.@.$.d.i.7.g.h.g.h.g.c.j.g.g.g.g.g.h.6.w.G.W.",
"j / h.7.h.t.0.a.7.7.4.4.7.7.r.7.4.4.x.g.i.3.8.+Xx * M g.y.y.4.7.7.7.7.y.7.7.r.7.r.7.y.7.r.7.7.0.>.R.",
"f ( u.7.r.0.0.0.0.8.y.y.0.0.r.0.0.4.h.3.u.4.e.+Xx * M f.u.0.6.k.0.0.r.y.0.0.0.4.0.0.0.0.r.0.0.=.:.R.",
"f W a.4.0.8.8.q.=.y.$.=.0.0.9.8.8.w.k.f.u.r.V.3XM > L f.r.0.w.w.0.0.0.=.0.0.8.0.8.0.=.0.0.p.0.=.B.=X",
"f W u.4.0.t.8.8.y.=.p.4.p.0.0.9.e.e.k.f.k.8.V.3XM $ L f.r.t.w.k.0.4.=.0.4.p.0.0.4.0.0.y.p.=.0.0.A.1X",
"j ` z.6.7.r.r.r.u.6.7.3.7.7.r.r.e.w.k.f.w.w.V.3XM : L +.r.0.w.w.r.7.7.7.7.7.5.7.5.7.7.7.7.7.7.0.A.*X",
"j ) c.g.h.k.h.r.7.7.7.7.7.h.f.k.0.r.k.f.k.5.V.,Xv $ L Q.r.t.w.k.7.h.h.7.7.h.h.7.h.7.7.h.7.7.7.7.B.*X",
"h ) x.h.w.r.w.r.r.7.7.r.7.w.r.w.0.4.x.i.i.4.t.+Xx O N f.u.y.y.b.r.r.r.r.r.7.r.r.w.r.7.r.r.w.r.w.C.:X",
"h _ x.7.h.k.r.r.r.7.7.7.h.r.k.r.4.6.z.` [ 6.r.+Xc & m ] u.i.i.x.7.7.f.7.k.5.h.7.5.h.k.7.k.h.7.0.A.;X",
"M A Q.I _ ` ) _ ) ( 1._ _ _ _ _ _ 6.) ) ] ` Z $X} ! l P v.Y ` / _ _ _ _ _ _ _ _ _ _ _ _ _ _ _ _ F ,X",
"8Xm y p L B h n h h g g g v g g d g v s x v i '.nXmX#Xm r r n y g v g g g g g v g g v g g g g h G uX"
};
