/* XPM */
static char *a7ef03ba25ea4516c64c502ce75ad720nRd6mXUOTkq6R8f7[] = {
/* columns rows colors chars-per-pixel */
"50 50 43 1 ",
"  c #D38F00",
". c #D48F00",
"X c #D39001",
"o c #D59102",
"O c #D69305",
"+ c #D79406",
"@ c #D89507",
"# c #D99709",
"$ c #DA980A",
"% c #DB9A0D",
"& c #DC9B0E",
"* c #DD9C0F",
"= c #DD9D10",
"- c #E0A013",
"; c #E2A317",
": c #E3A318",
"> c #E3A519",
", c #E4A51A",
"< c #E5A71C",
"1 c #E7A91F",
"2 c #E8AA1F",
"3 c #E8AA20",
"4 c #EAAD23",
"5 c #ECAF26",
"6 c #ECB026",
"7 c #EDB229",
"8 c #EFB42B",
"9 c #EFB42C",
"0 c #F1B62E",
"q c #F3B831",
"w c #F5BB34",
"e c #F7BE37",
"r c #F7BE38",
"t c #F8BF38",
"y c #F9C03A",
"u c #FBC33D",
"i c #FCC43E",
"p c #FCC43F",
"a c #FEC742",
"s c #FFC743",
"d c #FFC843",
"f c #FFC844",
"g c white",
/* pixels */
"ggggggggggggggggggggddddddddddgggggggggggggggggggg",
"ggggggggggggggggddddddddddddddddddgggggggggggggggg",
"ggggggggggggggddddddddddddddddddddddgggggggggggggg",
"ggggggggggggdddddddddddfddddddddddddddgggggggggggg",
"gggggggggggdddddddddiyw0900wyiffdddddddggggggggggg",
"gggggggggddddddddu01=$OooooO$=20uddddddddggggggggg",
"ggggggggddddaday5=o .   X    XXo*5yadaffddgggggggg",
"gggggggddddadi7%X o oo o oo..oXX o&7idafdddggggggg",
"ggggggddddaar:o   o  oo   XoXo o   o;eaaddddgggggg",
"gggggdddddaq& .ooo oo   O@XXo o o o  &qadddddggggg",
"gggggddfaa0#   o oo  o #8e1o   o o o  #0aafddggggg",
"ggggdddasq#.  o o      1afy$    o o .  #qaadddgggg",
"gggdddadr&  o  o   o$,7eadi0<=O .o.oo   &rdadddggg",
"gggddddi:    oo   +4taddadddauq,O.o  o  .:iddddggg",
"ggdddda7o  oo oo $0dddddddddddda7+  o  o o7addddgg",
"ggddddy& oo  o  o7adddddaadddddai; o oo.o.&yddddgg",
"gdddda5o  o o X ;ifddawqddiyaffda;  .. o  o5fddddg",
"gddddu= oo o o  4addd9+;ade=,qid8+  o.o o  *iddddg",
"gdddd0oX oo o  o9ddda: ;ade+ O=:O .  o o o O0ddddg",
"gdddd3  o  o o o0ddda3 ;ide+   X  ooo o o   2adddg",
"ddddi=.. o oo  o6ddddy>,ade+    o o  o o oo =adddd",
"ddddt#Xoo o  o. ;adddddyaae#     o oo o o   #tdddd",
"ddddeO o o oo o +qfdddddaaa91$o    o o o o  Oeaddd",
"dddd0o  o o  o  X*eddddddadaar5$  o o o o o o0afdd",
"dddd8oX o o o o   %0aaaaddddddae;  o o o o  o0dddd",
"dddd0o o o o o oo  O;7eaadddddddy-  o o o o o0dddd",
"dddd0o  o o o o  o   .+6aaaadaddd0O  o o oo o0dddd",
"ddddeO o o o o o   o   ;aay6eaadai* o o o XX+wdddd",
"ddddt%.oo o  oo      o ;ade+*tddda,  o o o  $yfddd",
"ddddu=   o oo. .%<,#   ;aae@X7ddaa,o. o o   =ifddd",
"gdddd3  o o  o $edaq:O ;aatOO0ddfa> o  o o  3ddddg",
"gdddd0o  o o.  >adfaaq<4aat=4iddau&  oo o. O0ddddg",
"gddddu* o o o  :aaaaddaaadaudaaad8oX o o o =uddddg",
"gddddd6X o o o +9idddddfaaaadddde& oo o   o5addddg",
"ggddddy%  o o   O>qidadaddddddfq=  . o oo %yddddgg",
"ggddddf7o  o o o X+;7euaaaaauq1#   oo o  o7addddgg",
"gggddddi:X  o o o   .#=7adi3%O   o o oo  :iddddggg",
"gggdddade%   o o o o  X3ddi%    o.o o   &edadddggg",
"ggggdddaaq#  oo o o .. <aay$ XXo o o   #qaafddgggg",
"gggggddddd0#   o o o o #0e1o  o o o   #0aadddggggg",
"gggggdddaaaq&  oo o o   O+o o o.o oo *qafddddggggg",
"ggggggdddfaat:o    o o       o o.  o:rdaddddgggggg",
"gggggggddddafi7&oXXXo .o o.oo    o%7iaafdddggggggg",
"ggggggggddddasat6*oX           +&5yaaaddddgggggggg",
"gggggggggdddfddddi01=#+ooooO$=30uddddddddggggggggg",
"gggggggggggdddddddfdite0900wyiddfddddddggggggggggg",
"ggggggggggggddddddddffddddfdddddddddddgggggggggggg",
"ggggggggggggggddddddddddddddddddddddgggggggggggggg",
"ggggggggggggggggddddddddddddddddddgggggggggggggggg",
"ggggggggggggggggggggddddddddddgggggggggggggggggggg"
};
