/* XPM */
static char *dd1a2a24693d402394452da31ef32515PnvTp6TN0e23dkcW[] = {
/* columns rows colors chars-per-pixel */
"50 50 240 2 ",
"   c #19733B",
".  c #176334",
"X  c #21763F",
"o  c #256E37",
"O  c #1F7F42",
"+  c #237142",
"@  c #287749",
"#  c #357C4D",
"$  c #377855",
"%  c #2F6E45",
"&  c #43765B",
"*  c #407557",
"=  c #547E5E",
"-  c #40794E",
";  c #4D7B68",
":  c #597A68",
">  c #0F8E3C",
",  c #1C8243",
"<  c #1E8C4B",
"1  c #168943",
"2  c #149444",
"3  c #1C9446",
"4  c #159649",
"5  c #1B944C",
"6  c #159E4B",
"7  c #1C9C4C",
"8  c #179A45",
"9  c #1E9C53",
"0  c #1E9653",
"q  c #0E9142",
"w  c #228544",
"e  c #248D4C",
"r  c #2D8D4E",
"t  c #288747",
"y  c #38864D",
"u  c #239445",
"i  c #22924C",
"p  c #2A954D",
"a  c #239D4E",
"s  c #299C4E",
"d  c #248D52",
"f  c #2B8B53",
"g  c #318251",
"h  c #3C8353",
"j  c #328E52",
"k  c #3B8A58",
"l  c #249652",
"z  c #2B9452",
"x  c #239C53",
"c  c #2B9B53",
"v  c #2D9659",
"b  c #2B9C59",
"n  c #239A59",
"m  c #329353",
"M  c #339D54",
"N  c #33955A",
"B  c #329C5B",
"V  c #3C955A",
"C  c #31904C",
"Z  c #1CA44D",
"A  c #17A548",
"S  c #1EA253",
"D  c #21A14E",
"F  c #23A354",
"G  c #2AA354",
"H  c #25AA56",
"J  c #24A45A",
"K  c #2BA359",
"L  c #26A959",
"P  c #2BAB5B",
"I  c #2BA955",
"U  c #33A25B",
"Y  c #3AA35D",
"T  c #36A759",
"R  c #2C9F60",
"E  c #3D9662",
"W  c #379B63",
"Q  c #3F8C60",
"!  c #33A661",
"~  c #3AA965",
"^  c #3DB96A",
"/  c #2AAE62",
"(  c #468659",
")  c #45955B",
"_  c #518B5B",
"`  c #4B8465",
"'  c #478B63",
"]  c #53846B",
"[  c #528A6D",
"{  c #4E9C6D",
"}  c #479865",
"|  c #529B6D",
" . c #589A6D",
".. c #53956F",
"X. c #5A8A72",
"o. c #4C9970",
"O. c #559471",
"+. c #529C71",
"@. c #5B9376",
"#. c #639E79",
"$. c #699D79",
"%. c #729F7E",
"&. c #4AA56A",
"*. c #56A46D",
"=. c #4AAA72",
"-. c #44AB73",
";. c #5DA475",
":. c #54AA73",
">. c #5EAC76",
",. c #5EAC7B",
"<. c #52A674",
"1. c #4AB675",
"2. c #59B779",
"3. c #65A374",
"4. c #63AB7D",
"5. c #68A579",
"6. c #57C27C",
"7. c #6B9682",
"8. c #5DBA88",
"9. c #5AA881",
"0. c #6DA985",
"q. c #76A885",
"w. c #68B984",
"e. c #75B689",
"r. c #7BAC91",
"t. c #7EB994",
"y. c #6EB992",
"u. c #7CBBA0",
"i. c #5CC786",
"p. c #6DC68A",
"a. c #7BCA96",
"s. c #72D093",
"d. c #7CDBA9",
"f. c #7FCCA0",
"g. c #86B999",
"h. c #98BD9D",
"j. c #9AAD99",
"k. c #95BBA9",
"l. c #90B4A4",
"z. c #A5B7AB",
"x. c #86CA99",
"c. c #92CA9C",
"v. c #82D094",
"b. c #8DC6A5",
"n. c #89C8A7",
"m. c #99C8AB",
"M. c #88D8A6",
"N. c #96D6A8",
"B. c #98CDB3",
"V. c #96D7B1",
"C. c #A8CDAD",
"Z. c #A5CDB2",
"A. c #AACBB3",
"S. c #A4CDBA",
"D. c #ABCBB9",
"F. c #B4CCBA",
"G. c #AADDB5",
"H. c #A6D3B9",
"J. c #ADD4B9",
"K. c #ACDBBC",
"L. c #A4D6BA",
"P. c #B5D9B9",
"I. c #A9D6AE",
"U. c #84E9AA",
"Y. c #98E4AD",
"T. c #8CEAB3",
"R. c #9DEDB9",
"E. c #99E6B4",
"W. c #98F1B6",
"Q. c #A9E7BA",
"!. c #B9E5BC",
"~. c #A6F7BD",
"^. c #AED6C1",
"/. c #B6D6C2",
"(. c #B3DBC4",
"). c #BBD8C7",
"_. c #9DF8C4",
"`. c #ABE6C7",
"'. c #B7E9C6",
"]. c #AAF8C6",
"[. c #B6F8C9",
"{. c #BBFFD9",
"}. c #B7F9D6",
"|. c #AFEBD2",
" X c #BCFFE6",
".X c #C7D8C6",
"XX c #C6DBD1",
"oX c #C7FACD",
"OX c #C7EAD4",
"+X c #D6E7DD",
"@X c #C4F5D3",
"#X c #CBFED4",
"$X c #C4FEDC",
"%X c #C7FFD8",
"&X c #D4FFDB",
"*X c #D6FCD7",
"=X c #CCECC3",
"-X c #E1E8DC",
";X c #EBFFDF",
":X c #DBEDE4",
">X c #D5E9E0",
",X c #CAFFE4",
"<X c #CBFFEA",
"1X c #C5FFE7",
"2X c #DDF2E5",
"3X c #D3FFE3",
"4X c #DBFFE5",
"5X c #DCF4EA",
"6X c #D3FFEC",
"7X c #DCFDEA",
"8X c #CFFFFA",
"9X c #DDFFF2",
"0X c #D1FFF4",
"qX c #E5EEE6",
"wX c #E6E6E6",
"eX c #E2F1E6",
"rX c #E3FDE6",
"tX c #EBFCE6",
"yX c #E3F3EB",
"uX c #EEF5EC",
"iX c #E4FEED",
"pX c #ECFDEB",
"aX c #EEF5E3",
"sX c #F2F5EC",
"dX c #F3FEEC",
"fX c #FDFFEF",
"gX c #F0FFE2",
"hX c #E4FEF2",
"jX c #ECFEF4",
"kX c #E5FFF8",
"lX c #EBFFFB",
"zX c #EEF5F4",
"xX c #FBF4F6",
"cX c #F2FEF5",
"vX c #FBFEF5",
"bX c #FEF4FC",
"nX c #F5FEFE",
"mX c #FEFEFE",
"MX c #F5F5F8",
"NX c #F2EEF0",
/* pixels */
"nXnXnXnXmXmXnXnXnXnXmXnXnXnXnXnXmXmXmXmXmXmXmXmXmXmXmXmXmXmXmXmXmXmXmXmXmXmXmXmXmXmXmXmXmXmXmXmXmXmX",
"mXmXmXmXmXmXmXmXmXmXmXnXnXmXnXmXmXmXmXmXmXmXmXmXmXmXmXmXmXmXmXmXmXmXmXmXmXmXnXmXmXnXmXmXmXmXmXmXmXmX",
"mXmXmXmXmXmXmXmXmXmXmXmXmXmXmXmXmXmXmXmXmXmXmXmXmXmXmXmXmXmXmXmXmXmXmXmXmXmXmXmXmXmXmXmXmXmXmXmXmXmX",
"mXmXmXbXbXmXmXmXmXmXbXmXmXmXmXmXmXmXmXmXmXmXmXmXmXmXmXmXmXmXmXmXmXmXmXmXmXmXmXmXmXmXmXmXmXmXmXmXmXmX",
"mXmXmXmXmXmXmXmXmXmXmXmXmXmXmXmXmXmXmXvXmXmXmXmXmXmXmXmXmXmXmXvXmXmXmXvXmXmXmXmXmXmXmXmXmXmXmXmXmXmX",
"mXvXmXmXmXmXmXvXmXmXmXvXbXvXmXmXmXmXmXmXmXvXmXmXmXvXmXmXmXmXmXmXmXmXmXmXmXmXmXmXmXmXmXmXvXmXmXmXmXmX",
"mXmXmXmXmXmXmXmXmXmXmXmXmXmXmXmXmXmXnXmXnXnXmXnXmXmXnXmXnXmXnXmXmXmXmXmXmXmXmXmXmXmXmXmXmXmXmXmXmXmX",
"mXmXmXmXnXnXnXmXmXnXmXmXmXmXmXmXmXnXmXnXmXmXnXmXmXnXmXnXmXnXmXmXmXmXmXmXmXmXbXmXmXmXmXmXmXmXmXmXmXmX",
"mXmXMXMXmXnXmXmXmXmXmXmXmXmXmXmXmXmXmXmXmXmXmXmXmXmXmXmXmXmXmXmXmXmXbXbXmXbXbXmXmXmXbXbXmXmXmXmXxXmX",
"xXmXmXmXmXzXmXnXnXnXnXmXmXmXmXbXmXmXmXmXbXmXmXmXmXmXmXmXbXmXmXmXmXmXmXmXmXmXbXmXNXbXmXmXmXnXbXmXmXmX",
"mXbXxXmXmXmXmXnXmXnXmXmXmXmXmXmXmXmXmXmXmXmXmXmXmXmXmXmXmXmXmXmXnXnXnXzXmXmXmXmXmXmXmXnXmXnXnXnXMXmX",
"NXNX-XwXuXeX:X+XeX2XeXeXeXqXqXqXqXqXqXqXqXqXqXqXqXqXqXqXqXqXqXqX5XhX7X:X5X:X:XzXwX:X>X>X:X5X7XyXyXwX",
"j..XF.C..X!.J.OXL.J.H.J.J.J.J.J.F.J.J.J.J.J.J.J.F.J.J.J.F.J.J.J.H.H.L.(.).J.F.F././././.(.(.^.^.XXz.",
"!.oXh.3.0.;.} ;.4.,.4.,.4.4.4.4.4.4.4.4.4.4.4.4.4.4.4.4.4.4.4.4.y.0.$.5.q.q.%.$.%.q.q.5.#.3.4.0.OX).",
"Y.6.y X f z B b i 5 i i i e e e e 5 e i 5 e i i 5 i 5 e e 5 i f   ( ( h ( ( ( = ( ( & ( _ ' ( $ 7.k.",
"E.:.t Y c u G 8 J S J J G G D F G J F F J S F S J J J F F F F G &.R.6X3X%X3X&X#X&X%X{.,X4X[.2.g @.k.",
"Q.4., U p G H Z L 9 Z D s s A A > I 3 D H 7 4 Z S S Z F H 7 7 G f 1X9XlXnXjXfXtXE.-.8.0XcXpX} M O.b.",
"G.4.z ! u u 8 8 9 F F D M T A A A I D 7 7 Z F x 4 P G 4 3 I G i V <XnX:XmXsXfXtX*.  W `.sXfX>.t O.b.",
"G.4.l x a c a P l x D G M u > A H > 8 D F x F 0 x x x x a D D c V [.jXmXmXnXdXtXN.E 9.1XmXaX} t +.b.",
"'.>.e 4 F K u M ! K u D M s 7 Z H 7 H D x l x J v i a G D u a c } @XnXzXj.z.h.c.a.M.|.9XvXdX3.m ..b.",
"Q.;.l 6 S 7 C C @ i d 1 d U G 3 8 7 / q v f 5 l C m c a u s I u r $XkX: ; [ |   > *.n.<XjX3X~ e { b.",
"G.>.n S A G v.N.Y.T._.T.1.e z Y ! 5 9 ! W.p.n 1.4.k 5 x p u G a V 3XB.; |.{.i.! T f h L.9X<X~ x { b.",
"G.4.l J 6 K #XrX{._.}._.=., r j N e < N }.a.r s.[.*.3 P M u 8 F B ].` n.8X X9 6 l 2.;.* n.V.1.1 { b.",
"!.4.e P A s oX=X% @ $ @ f d.R.*.} T.U.g N.g.,.1XrXc.B x p c H 8 } `.t.<X8Xd.0 S i ].hX: ` X x K o.b.",
"I.3.m F 6 i *XgXoX`.,XR.@ =.,X[.Y.6X9.( iX'.} ].&Xc.v 7 e T Z 7 ) #XtXkX6X{ l u p.3XdX-XZ.'.E t ..c.",
"!.3.C p a M *XgXV.G.'.n.o.g ;.3X#Xa.g ( tX'.. ].*X_ e x p c 6 P _ #XiXhX}.Q &.w p.rXvXvXcX7X:.z o.b.",
"P.3.y G a M !.=X# # + $ Q g 4.3X7X3.#  .*X!.@ R.4X( c K c a q a ( oXjXlX^.$ w.k _ oXpXsXvXiX&.@ ..b.",
"P.$.C u u Y oX&Xx.n.f.V.} { 1X~.Y.3X*.h 7XQ.  W.$X| M l b T F 7 V `.hXkXB.$ E.e.o c.jXiXvXhX=.< { b.",
"!.5.m l p Y W.].{.{. X Xw.p.{.:.&.,Xp.) }.M.r p.<XR.-.l 1 p P ~ s.}.$X}.u.' %X[.y | 3XlXvXjX-.n { b.",
"G.3.r U c u Y p N d d d k V p > C e T T e v c < e B > ! U z T i., V $ $ $ ` &X4Xw.X n.lXmXcXW 0 { b.",
"!.;.w a p s G 7 l R R d V j > ^ P > F 9 5 F 0 ~ x b 5 z p s 6.U.2.M.t.k.l.S.dXtX[.( @.7XmXvXo.0 ..b.",
"Q.;.z b M a S S J b 9 K z m H > Z H F x J F 9 9 F 1 ~ x p c Y Y :.}.9XlX9XlXfXfXrXr.& ).xXcX=.d ..b.",
"Q.*.c c 5 K J 4 S F S D D D A Z D D D s D a a D c a s s s s s m h 3XkXiXcXpXvXvXdX*X: = rX4X&.N O.B.",
"Y.&.m B l 5 x 6 F 7 D D D Z A Z D x s D s D a a D a D D a a D M ( @XiXhXcXhXcXpXcXiXh.e.%X$X,.X X.B.",
"R.w.f B R 0 J J x x x x F Z D S S S S S F S S S S 9 F F S S 9 b M.6X9X9XhXhXjXlXiXl.e.[.{.s.B } ` B.",
"V.e.+ @ E f R z z v z z p z p l l l l x l l l x l x l l x l l v y.n.t.r.r.r.l.g.r.$ & e.w.Q f k 7.z.",
"OXOXq.%.0... .'  . . . . . .| | | &.+.| | { { { +.&.{ { { { { +.[ ] ; X.X.X.X.; X.O.O...[ +.+.../.XX",
"j..XA.z.A.Z.K.K.Z.A.C.C.C.C.C.C.Z.C.Z.Z.Z.Z.Z.A.Z.A.A.A.Z.Z.C.Z.^.S.S.^.(.^.D.S.H.H.S.L.L.V.N.(.F.z.",
"wXmXvXuXeXqX2XeXpXuXaXsXtXsXtXtXsXsXsXsXsXsXsXsXsXsXsXsXsXsXsXsXzXzXyXeXzXyX5XiX5XhXiX2XrXiXrXyXcXuX",
"mXbXmXmXnXnXmXcXmXmXmXmXvXvXvXvXxXmXmXbXmXmXmXmXmXbXmXmXmXmXmXbXbXmXmXmXnXmXcXnXnXcXmXvXmXvXvXmXvXxX",
"mXmXmXnXnXlXnXnXnXmXmXnXmXmXnXmXmXmXmXmXmXmXmXmXmXmXmXmXmXmXmXmXmXmXbXmXmXmXmXmXmXmXmXvXmXmXxXmXmXmX",
"mXmXnXnXnXnXnXnXnXnXmXmXmXnXnXnXmXmXmXmXmXmXmXmXmXmXmXmXmXmXmXmXbXbXmXmXmXmXmXmXmXmXmXmXmXmXbXmXmXmX",
"mXmXmXnXnXnXnXmXmXmXmXmXmXmXmXnXnXmXnXmXnXmXnXmXnXmXnXmXnXmXnXmXmXmXmXmXmXmXvXnXmXmXmXnXmXmXmXmXmXmX",
"mXmXmXmXmXnXmXmXmXmXmXmXmXmXmXmXmXnXmXnXmXnXmXnXmXnXmXnXmXnXnXmXmXmXmXmXmXnXnXmXmXnXmXmXmXmXmXmXmXmX",
"bXmXbXmXmXmXmXmXmXmXmXbXmXmXmXmXmXmXmXmXmXmXmXmXmXmXmXmXmXmXmXmXmXnXmXmXmXmXnXnXcXmXmXnXmXmXmXmXmXmX",
"mXbXbXmXmXmXmXmXbXbXbXmXbXmXbXmXmXmXmXmXmXmXmXmXmXmXmXmXmXmXmXmXmXmXnXmXmXmXvXmXmXmXmXmXmXnXmXnXmXmX",
"mXmXmXmXmXmXmXmXmXmXmXmXmXmXnXnXmXmXmXvXmXmXmXvXmXvXmXmXvXmXmXmXmXmXmXmXmXvXmXmXmXvXmXmXmXmXmXmXmXmX",
"mXmXmXnXnXnXnXnXmXmXmXmXmXnXnXmXmXvXmXmXmXvXmXvXmXmXmXvXmXmXvXmXmXmXmXmXmXmXvXvXmXmXmXmXmXmXmXmXmXmX",
"mXmXmXmXmXmXmXmXmXmXmXmXmXmXmXmXmXmXmXmXmXmXmXmXmXmXmXmXmXmXmXmXmXmXmXmXmXmXmXmXmXmXmXmXmXmXmXmXmXmX",
"mXmXmXmXmXmXmXmXmXmXmXmXmXmXmXmXmXmXmXmXmXmXmXmXmXmXmXmXmXmXmXmXmXmXmXmXmXmXmXmXmXmXmXmXmXmXmXmXmXmX"
};
